<?xml version="1.0" encoding="utf-8"?>
<!-- Generator: Adobe Illustrator 16.0.0, SVG Export Plug-In . SVG Version: 6.00 Build 0)  -->
<!DOCTYPE svg PUBLIC "-//W3C//DTD SVG 1.1//EN" "http://www.w3.org/Graphics/SVG/1.1/DTD/svg11.dtd">
<svg version="1.1" id="Layer_1" xmlns="http://www.w3.org/2000/svg" xmlns:xlink="http://www.w3.org/1999/xlink" x="0px" y="0px"
	 width="55.5px" height="60px" viewBox="0 0 55.5 60" enable-background="new 0 0 55.5 60" xml:space="preserve">
<rect fill="#FFFFFF" width="55.5" height="60"/>
<linearGradient id="SVGID_1_" gradientUnits="userSpaceOnUse" x1="79.6279" y1="1721.2998" x2="115.1455" y2="1721.2998" gradientTransform="matrix(1.25 0 0 -1.25 -97.25 2181.625)">
	<stop  offset="0" style="stop-color:#11AAE2"/>
	<stop  offset="0.59" style="stop-color:#0880B7"/>
	<stop  offset="1" style="stop-color:#016197"/>
</linearGradient>
<path fill="url(#SVGID_1_)" d="M31.632,7.292c-3.153,1.853-5.021,5.199-5.021,8.727c0,1.853,0.746,3.72,1.676,5.385
	c0.742,1.488,1.107,4.086-1.489,5.387c-1.853,1.108-4.277,0.37-5.385-1.488c-1.109-1.488-2.41-2.976-4.084-4.085
	c-3.155-1.852-6.875-1.852-10.029,0c-3.154,1.853-5.016,5.207-5.016,8.736c0,3.528,1.852,6.874,5.016,8.731
	c3.153,1.854,6.874,1.854,10.028,0c1.676-0.933,2.976-2.408,3.898-4.084c0.744-1.302,2.789-2.978,5.386-1.488
	c1.852,1.106,2.41,3.533,1.487,5.385c-0.931,1.676-1.487,3.533-1.487,5.387c0,3.533,1.852,6.873,5.021,8.727
	c3.154,1.853,6.874,1.853,10.027,0c3.154-1.854,5.021-5.196,5.021-8.727c0-3.529-1.857-6.875-5.021-8.732
	c-1.677-0.932-3.533-1.301-5.573-1.301c-1.676,0-3.898-1.108-3.898-3.897c0-2.231,1.677-3.898,3.898-3.898
	c1.854,0,3.896-0.369,5.573-1.301c3.153-1.854,5.021-5.199,5.021-8.727c0-3.527-1.857-6.874-5.021-8.727
	C40.173,6.37,38.32,6,36.645,6C34.979,5.992,33.111,6.371,31.632,7.292"/>
</svg>
